<?xml version="1.0" standalone="no"?><!DOCTYPE svg PUBLIC "-//W3C//DTD SVG 1.1//EN" "http://www.w3.org/Graphics/SVG/1.1/DTD/svg11.dtd"><svg t="1673718017035" class="icon" viewBox="0 0 1024 1024" version="1.1" xmlns="http://www.w3.org/2000/svg" p-id="1318" width="32" height="32" xmlns:xlink="http://www.w3.org/1999/xlink"><path d="M1003.402012 0h-982.904014C9.199102 0 0 9.199102 0 20.497998v798.62201c0 11.298897 9.199102 20.497998 20.497998 20.497998h982.904014c11.298897 0 20.497998-9.199102 20.497998-20.497998V20.497998c0-11.298897-9.199102-20.497998-20.497998-20.497998z" fill="#3F6AFF" p-id="1319"></path><path d="M61.394004 61.394004h901.012011v655.336003H61.394004z" fill="#FFE900" p-id="1320" data-spm-anchor-id="a313x.7781069.0.i7"></path><path d="M798.62201 942.008007H225.278c-11.298897 0-20.497998 9.199102-20.497998 20.497998v40.995997c0 11.298897 9.199102 20.497998 20.497998 20.497998h573.34401c11.298897 0 20.497998-9.199102 20.497998-20.497998v-40.995997c0-11.398887-9.199102-20.497998-20.497998-20.497998z" fill="#3F6AFF" p-id="1321"></path><path d="M880.514012 778.124011h40.995997v61.394005h-40.995997z" fill="#FFE900" p-id="1322"></path><path d="M409.560004 839.618006h204.780002v102.390001H409.560004z" fill="#3F6AFF" p-id="1323"></path><path d="M61.394004 655.336002h901.012011v61.394005H61.394004zM61.394004 61.394004h901.012011v122.888H61.394004z" fill="#333333" p-id="1324"></path><path d="M81.892003 675.73401h40.995996v20.497999h-40.995996z" fill="#FFE900" p-id="1325"></path><path d="M921.510009 61.394004h20.497998v20.497999h-20.497998z" fill="#3F6AFF" p-id="1326"></path><path d="M61.394004 143.385997h20.497999v511.950005H61.394004zM942.008007 143.385997h20.497998v511.950005h-20.497998z" fill="#333333" p-id="1327"></path><path d="M81.892003 81.892003h20.497998v20.497998H81.892003zM81.892003 122.887999h860.116004v61.394005H81.892003zM122.887999 81.892003h61.394005v40.995996h-61.394005zM204.780002 81.892003h20.497998v20.497998h-20.497998zM245.775998 81.892003h20.497999v20.497998h-20.497999zM286.672005 81.892003h20.497998v20.497998h-20.497998zM327.668001 81.892003h20.497998v20.497998h-20.497998zM368.564007 81.892003h20.497999v20.497998h-20.497999zM409.560004 81.892003h20.497998v20.497998h-20.497998z" fill="#3F6AFF" p-id="1328"></path><path d="M184.282004 143.385997h614.340006v20.497999H184.282004zM348.165999 389.062006h327.668002v40.995996H348.165999z" fill="#333333" p-id="1329"></path><path d="M430.058002 266.174006h163.784006v81.892003H430.058002zM409.560004 286.672005h20.497998v40.995996h-20.497998z" fill="#3F6AFF" p-id="1330"></path><path d="M593.842008 286.672005h20.497998v40.995996h-20.497998z" fill="#3F6AFF" p-id="1331"></path><path d="M102.390001 143.385997h20.497998v20.497999h-20.497998zM143.385997 143.385997h20.497999v20.497999h-20.497999zM819.120008 143.385997h20.497998v20.497999h-20.497998zM860.116004 143.385997h20.497999v20.497999h-20.497999zM901.012011 143.385997h20.497998v20.497999h-20.497998z" fill="#333333" p-id="1332"></path><path d="M368.564007 470.954008h40.995997v40.995997h-40.995997zM430.058002 470.954008h40.995997v40.995997h-40.995997zM491.452007 470.954008h40.995996v40.995997h-40.995996zM552.946001 470.954008h40.995997v40.995997h-40.995997zM614.340006 470.954008h40.995996v40.995997h-40.995996zM368.564007 532.448003h40.995997v40.995997h-40.995997zM430.058002 532.448003h40.995997v40.995997h-40.995997zM491.452007 532.448003h40.995996v40.995997h-40.995996zM552.946001 532.448003h40.995997v40.995997h-40.995997zM614.340006 532.448003h40.995996v40.995997h-40.995996z" fill="#3F6AFF" p-id="1333"></path></svg>